<?xml version="1.0" standalone="no"?><!DOCTYPE svg PUBLIC "-//W3C//DTD SVG 1.1//EN" "http://www.w3.org/Graphics/SVG/1.1/DTD/svg11.dtd"><svg t="1743057535172" class="icon" viewBox="0 0 1024 1024" version="1.1" xmlns="http://www.w3.org/2000/svg" p-id="3651" width="256" height="256" xmlns:xlink="http://www.w3.org/1999/xlink"><path d="M384 426.666667c-12.8 0-21.333333 8.533333-21.333333 21.333333 0 6.4 2.133333 10.666667 6.4 14.933333l128 128c4.266667 4.266667 8.533333 6.4 14.933333 6.4 6.4 0 10.666667-2.133333 14.933333-6.4l128-128c4.266667-4.266667 6.4-8.533333 6.4-14.933333 0-12.8-8.533333-21.333333-21.333333-21.333333-6.4 0-10.666667 2.133333-14.933333 6.4L533.333333 524.8 533.333333 106.666667c0-12.8-8.533333-21.333333-21.333333-21.333333s-21.333333 8.533333-21.333333 21.333333l0 418.133333-91.733333-91.733333C394.666667 428.8 390.4 426.666667 384 426.666667zM979.2 610.133333 979.2 610.133333l-213.333333-426.666667 0 0C761.6 174.933333 755.2 170.666667 746.666667 170.666667l-149.333333 0c-12.8 0-21.333333 8.533333-21.333333 21.333333 0 12.8 8.533333 21.333333 21.333333 21.333333l136.533333 0 192 384L704 597.333333l-23.466667 0L661.333333 597.333333c-12.8 0-21.333333 8.533333-21.333333 21.333333 0 70.4-57.6 128-128 128s-128-57.6-128-128c0-12.8-8.533333-21.333333-21.333333-21.333333l-19.2 0L320 597.333333 98.133333 597.333333l192-384L426.666667 213.333333c12.8 0 21.333333-8.533333 21.333333-21.333333 0-12.8-8.533333-21.333333-21.333333-21.333333l-149.333333 0c-8.533333 0-14.933333 4.266667-19.2 12.8l0 0-213.333333 426.666667 0 0C42.666667 612.266667 42.666667 614.4 42.666667 618.666667l0 298.666667c0 12.8 8.533333 21.333333 21.333333 21.333333l896 0c12.8 0 21.333333-8.533333 21.333333-21.333333L981.333333 618.666667C981.333333 614.4 981.333333 612.266667 979.2 610.133333zM938.666667 896 85.333333 896 85.333333 640l258.133333 0c10.666667 83.2 83.2 149.333333 168.533333 149.333333 87.466667 0 157.866667-66.133333 168.533333-149.333333L938.666667 640 938.666667 896z" fill="#e16035" p-id="3652"></path></svg>